PathFileType	4	(X/Y/Z)	/Users/niels/Desktop/University/Third Semester/Perception and Action/Exam/Gymnastics Motion Tracking/Code for Gym Tracking/Analyzed Data/Webcam_Backflip/id2_1_baseline_Sports2D/id2_1_baseline_Sports2D_px_person00.trc
DataRate	CameraRate	NumFrames	NumMarkers	Units	OrigDataRate	OrigDataStartFrame	OrigNumFrames
29.872881355932204	29.872881355932204	9	22	m	29.872881355932204	88	236
Frame#	Time	Hip			RHip			RKnee			RAnkle			RBigToe			RSmallToe			RHeel			LHip			LKnee			LAnkle			LBigToe			LSmallToe			LHeel			Neck			Head			Nose			RShoulder			RElbow			RWrist			LShoulder			LElbow			LWrist		
		X1	Y1	Z1	X2	Y2	Z2	X3	Y3	Z3	X4	Y4	Z4	X5	Y5	Z5	X6	Y6	Z6	X7	Y7	Z7	X8	Y8	Z8	X9	Y9	Z9	X10	Y10	Z10	X11	Y11	Z11	X12	Y12	Z12	X13	Y13	Z13	X14	Y14	Z14	X15	Y15	Z15	X16	Y16	Z16	X17	Y17	Z17	X18	Y18	Z18	X19	Y19	Z19	X20	Y20	Z20	X21	Y21	Z21	X22	Y22	Z22
88	2.945815602836879	0.8747572133963579	-0.5593035839398771	0.0	0.8732421727563036	-0.5595879702359885	0.0	0.8727248480642871	-0.6737569601303859	0.0	0.8515898288782663	-0.7968140606793093	0.0	0.889485867661089	-0.8152869092202195	0.0	0.8793157919075948	-0.8223022819658623	0.0	0.8419293727124946	-0.815109125715972	0.0	0.879862828713004	-0.5595941774681322	0.0	0.8768514741629242	-0.6750746471412485	0.0	0.8597495449822006	-0.7881029725402406	0.0	0.9017739587909575	-0.8076525872803016	0.0	0.8966074301585469	-0.8012563892111574	0.0	0.844381533298288	-0.8020833491340363	0.0	0.8809040519575795	-0.40807628572594246	0.0	0.9019344999896338	-0.32851934796602866	0.0	0.9067138427357712	-0.37325405308442444	0.0	0.8701751629609493	-0.41293400394879526	0.0	0.8818238631736983	-0.3294611770598962	0.0	0.8991543057297077	-0.27011370560385267	0.0	0.8812555127438784	-0.4142282545399883	0.0	0.8945441809747635	-0.3353899798855949	0.0	0.9042009160115648	-0.2773968862237078	0.0
89	2.979290780141844	0.8763208871029585	-0.5612676447411304	0.0	0.8747840277656057	-0.5613833925806081	0.0	0.8730974719921879	-0.6760248942411697	0.0	0.8520312504883374	-0.7993039587881966	0.0	0.8897231735021359	-0.8178658553256922	0.0	0.8792441143768946	-0.8250057298456864	0.0	0.8419630150481909	-0.8175368912955859	0.0	0.8816034111313906	-0.5613735803059142	0.0	0.8773954166077014	-0.6773121174339369	0.0	0.8605084711111107	-0.7902161868802811	0.0	0.9022033416488678	-0.810124489378603	0.0	0.8971370705347171	-0.8037476497688167	0.0	0.8452477767829475	-0.8043117407720499	0.0	0.8819370352005124	-0.40985563726681395	0.0	0.902556739459301	-0.3301445011511819	0.0	0.9077604156612571	-0.37484691660335584	0.0	0.8709783708754794	-0.4147396675334116	0.0	0.88192873233905	-0.3312745267653071	0.0	0.8992682520672302	-0.2714316498994083	0.0	0.8822021020921177	-0.41604511092241386	0.0	0.8945194640692412	-0.3370025858359652	0.0	0.9037024197132913	-0.27854119720471476	0.0
90	3.012765957446808	0.8777062020006181	-0.5645198328933223	0.0	0.8761973777939958	-0.5643844879511662	0.0	0.8735001377901312	-0.6795677440618784	0.0	0.8524682916339218	-0.8027923926933027	0.0	0.8896626823669892	-0.8214522094612626	0.0	0.8790180824179293	-0.828556193726904	0.0	0.842011392598451	-0.8209612764076383	0.0	0.8831035763829841	-0.5643835172233643	0.0	0.8778828947176542	-0.6806819206517611	0.0	0.8612559647445731	-0.7933511163351179	0.0	0.9026629779229842	-0.8135341505962552	0.0	0.8976643657400111	-0.8071870113435502	0.0	0.8460922220054401	-0.8076416962391558	0.0	0.8827975482267119	-0.41312505214291156	0.0	0.9032956951709044	-0.33316218021762406	0.0	0.9085950105347068	-0.37791202080584807	0.0	0.8718661369845199	-0.41775730551872187	0.0	0.8821455338745078	-0.3341973415394422	0.0	0.8991438184006512	-0.27359720064333615	0.0	0.8828239046957237	-0.4191887306470385	0.0	0.8944480989884755	-0.33957122912686116	0.0	0.902973038455931	-0.280173367328768	0.0
91	3.0462411347517726	0.8787932785326313	-0.5686485569364879	0.0	0.8774039644719982	-0.5683210806378499	0.0	0.8739412593592615	-0.6839612543605369	0.0	0.8529136398414221	-0.8069096859731262	0.0	0.8893694815197601	-0.8257768798010845	0.0	0.8786918327710544	-0.8327218788510665	0.0	0.8422322173230417	-0.825122772391714	0.0	0.8842873922663576	-0.5683431969744374	0.0	0.8783544386401664	-0.6848572922747757	0.0	0.8619729704653346	-0.7973267308236152	0.0	0.9030444142685078	-0.8176441224449866	0.0	0.8981096627217531	-0.8113539404633633	0.0	0.846855693890229	-0.8118482895919875	0.0	0.8834431031862174	-0.4175276472496482	0.0	0.9039591825254037	-0.33729565163667957	0.0	0.9091770303750555	-0.38209071382449766	0.0	0.8728013358103585	-0.42165588771884027	0.0	0.8825664396690647	-0.3378244560151853	0.0	0.8988088306041736	-0.2763420030598511	0.0	0.8832256595406727	-0.42323283625223385	0.0	0.8944900910227425	-0.3427618174837354	0.0	0.9022732962907686	-0.282032546004879	0.0
92	3.0797163120567372	0.8795166190295118	-0.5732565149136856	0.0	0.878358086058974	-0.5728856365432158	0.0	0.8744495653449993	-0.6887964496785143	0.0	0.853385176020605	-0.81132153754618	0.0	0.888944923221482	-0.8304498870416425	0.0	0.8783346366336744	-0.8371891828271133	0.0	0.842708400935158	-0.8297043809075022	0.0	0.8851380747728059	-0.5729333849274415	0.0	0.8788252087930523	-0.6894736087453193	0.0	0.8625903974865808	-0.8018963714274606	0.0	0.9032988874674712	-0.8220753428079318	0.0	0.8984030880198244	-0.815885181194562	0.0	0.8474988439987152	-0.816633537128838	0.0	0.883841822244398	-0.4226106380389622	0.0	0.9043490972169888	-0.3421136319673719	0.0	0.9094257612884555	-0.3869442611783345	0.0	0.8736589519520054	-0.4261684711004088	0.0	0.8832324804169148	-0.3417760376208951	0.0	0.8983767432113696	-0.27947560160238205	0.0	0.8835184757438621	-0.42781767229009177	0.0	0.8947352315920815	-0.3463263444480959	0.0	0.9017881691978341	-0.2840648651012908	0.0
93	3.113191489361702	0.8799138047990775	-0.5779948625978788	0.0	0.8790256463635475	-0.577723364598811	0.0	0.8750178988628133	-0.6936710395276332	0.0	0.853845141351361	-0.8156977683864296	0.0	0.8885508610825334	-0.8349714793249532	0.0	0.8780846227592727	-0.8415267338225709	0.0	0.8434189053454765	-0.8342951968394818	0.0	0.8857034898352314	-0.5777834645276992	0.0	0.8792957121666038	-0.6941313445341004	0.0	0.8630299740571457	-0.8066617417568842	0.0	0.9034986333265188	-0.826353417527849	0.0	0.8985583341564537	-0.8203081444877687	0.0	0.8480055049264683	-0.8215772013903934	0.0	0.8840041239418933	-0.42787442794849817	0.0	0.9043324904540921	-0.3471065379044868	0.0	0.909273423766411	-0.39198636675917925	0.0	0.8742823492274727	-0.4310053785907727	0.0	0.8841518801746133	-0.3457891723335353	0.0	0.8980560262072408	-0.2828923439171083	0.0	0.8837887819772775	-0.43263907126695467	0.0	0.895216789843471	-0.35012134033303355	0.0	0.9016487188978668	-0.286412943685738	0.0
94	3.146666666666666	0.8800898919924312	-0.5824576059373782	0.0	0.8793842461110989	-0.5823815730324875	0.0	0.875587160152757	-0.6981228630641836	0.0	0.8541966945164631	-0.8196709584499404	0.0	0.8883775888765383	-0.8388428877676806	0.0	0.8781086436842779	-0.8452554910241447	0.0	0.844211228024827	-0.8384397960941428	0.0	0.8860594458615237	-0.5824176685138936	0.0	0.8797640925805326	-0.6983912476264891	0.0	0.8632700170007964	-0.8110811720878472	0.0	0.9037368497829242	-0.8300145920241376	0.0	0.8986415973060673	-0.8241301099518351	0.0	0.8483709740108953	-0.826129773724911	0.0	0.8839828689261467	-0.4328075521082345	0.0	0.9038759115298356	-0.3517820873941744	0.0	0.9087644237539811	-0.39669336773379554	0.0	0.8745817487308175	-0.43576100203499485	0.0	0.8852996106272126	-0.3497815760699133	0.0	0.8980905157227609	-0.28663619340077606	0.0	0.8840638639263994	-0.43734358978144944	0.0	0.8959348722533823	-0.3541355418209762	0.0	0.9019347224881175	-0.2893964638890604	0.0
95	3.1801418439716307	0.8801277724149053	-0.5861726901622085	0.0	0.8794371504397155	-0.5863575265059715	0.0	0.8760609079063315	-0.7017002156220198	0.0	0.8543368982187696	-0.8228938316599186	0.0	0.8885867089648056	-0.8417114014272936	0.0	0.8785297786890617	-0.8479964632919363	0.0	0.8448454461908785	-0.8417446543001953	0.0	0.8862580551293185	-0.5863027925304388	0.0	0.8802028631668709	-0.7018343081874044	0.0	0.8633420824331374	-0.8146428353028583	0.0	0.9040318224055501	-0.8327508446079201	0.0	0.8987366324280778	-0.8269877695396942	0.0	0.8485725795582477	-0.8297437754610736	0.0	0.8838265596545477	-0.4369331175773152	0.0	0.9030231186271749	-0.3557730810852501	0.0	0.9080695724381618	-0.4005719964176137	0.0	0.8745657414228768	-0.4399770482525029	0.0	0.8866056830234583	-0.3539560068042063	0.0	0.898722913209732	-0.29103119334496497	0.0	0.8842948541260459	-0.44151908678064183	0.0	0.8968418707766682	-0.3586000327361958	0.0	0.9026643665333016	-0.2935484294369729	0.0
96	3.2136170212765953	0.880052690648128	-0.5887806499242243	0.0	0.8792235024877779	-0.5892687211095731	0.0	0.8763162355815192	-0.7041180652919992	0.0	0.8542172613843502	-0.8251235010787563	0.0	0.8892255920024331	-0.8434429087276594	0.0	0.8793269453953777	-0.8495607964258296	0.0	0.8451201325761478	-0.8439298417074158	0.0	0.8863231870330318	-0.5890253904692968	0.0	0.880551481373864	-0.7041790654188582	0.0	0.8632933522392005	-0.8170369029167681	0.0	0.9043414027094084	-0.8344601617509834	0.0	0.8989203981925034	-0.8287519479617962	0.0	0.8486524794547903	-0.8320248093150496	0.0	0.8835526705842524	-0.4398674010678997	0.0	0.9018216573933857	-0.3588767343687188	0.0	0.9073803505704007	-0.4032475755062847	0.0	0.874300095522975	-0.44327264130810784	0.0	0.8879615778383545	-0.3589306885403879	0.0	0.9001868745471384	-0.296806461536577	0.0	0.8843786631631834	-0.44478032008125273	0.0	0.8978362686557886	-0.364105705725123	0.0	0.9038251316064858	-0.2996887311629776	0.0
